<?xml version="1.0" encoding="UTF-8" standalone="no"?>
<!-- Created with Inkscape (http://www.inkscape.org/) -->

<svg
   width="300"
   height="90"
   viewBox="0 0 79.374998 23.812501"
   version="1.1"
   id="svg5"
   inkscape:version="1.1.1 (3bf5ae0d25, 2021-09-20)"
   sodipodi:docname="mi-logo-blanco-curva.svg"
   xmlns:inkscape="http://www.inkscape.org/namespaces/inkscape"
   xmlns:sodipodi="http://sodipodi.sourceforge.net/DTD/sodipodi-0.dtd"
   xmlns="http://www.w3.org/2000/svg"
   xmlns:svg="http://www.w3.org/2000/svg">
  <sodipodi:namedview
     id="namedview7"
     pagecolor="#505050"
     bordercolor="#eeeeee"
     borderopacity="1"
     inkscape:pageshadow="0"
     inkscape:pageopacity="0"
     inkscape:pagecheckerboard="0"
     inkscape:document-units="px"
     showgrid="true"
     inkscape:zoom="1.8786869"
     inkscape:cx="178.31604"
     inkscape:cy="91.287164"
     inkscape:window-width="1920"
     inkscape:window-height="1015"
     inkscape:window-x="0"
     inkscape:window-y="0"
     inkscape:window-maximized="1"
     inkscape:current-layer="layer1"
     units="px"
     width="400px"
     showguides="true"
     inkscape:guide-bbox="true">
    <inkscape:grid
       type="xygrid"
       id="grid1188" />
    <sodipodi:guide
       position="75.406248,67.468752"
       orientation="1,0"
       id="guide1304" />
    <sodipodi:guide
       position="64.822915,25.135417"
       orientation="0,-1"
       id="guide1306" />
  </sodipodi:namedview>
  <defs
     id="defs2" />
  <g
     inkscape:label="Capa 1"
     inkscape:groupmode="layer"
     id="layer1">
    <g
       id="g925"
       transform="translate(-25.929167,-4.2333335)">
      <path
         id="path1024"
         style="display:inline;fill:#fcd76f;stroke-width:0.191585"
         d="M 27.4617,15.763323 H 99.725029 V 26.741836 H 27.4617 Z" />
      <g
         aria-label="Luigi.Dev"
         id="text780-2"
         style="font-size:17.6763px;font-family:SpicyRice;-inkscape-font-specification:SpicyRice-Regular;display:inline;fill:#fafaf9;stroke-width:1.24728">
        <path
           d="m 43.719186,20.235561 q -0.302085,-0.06905 -0.716374,-0.120834 -0.405657,-0.05179 -0.854469,-0.07768 -0.440182,-0.02589 -0.880363,-0.03452 -0.43155,-0.01726 -0.785421,-0.01726 -0.345241,-0.0086 -0.569647,-0.0086 -0.224406,0 -0.241668,0 -0.535122,0.0086 -1.156555,0.05179 -0.535122,0.04315 -1.225603,0.120834 -0.681849,0.08631 -1.432747,0.233037 0.17262,-0.664587 0.302086,-1.484533 0.129465,-0.828576 0.215775,-1.752094 0.08631,-0.923518 0.129465,-1.907452 0.04315,-0.983935 0.04315,-1.96787 0,-0.811314 -0.03452,-1.596736 -0.02589,-0.794052 -0.09494,-1.519057 -0.06042,-0.7250043 -0.155358,-1.3723297 -0.08631,-0.6473254 -0.215776,-1.1824478 0.897625,0.1639891 1.62263,0.2157751 0.733635,0.051786 1.29465,0.051786 0.353872,0 0.630064,-0.00863 0.276192,-0.017262 0.466074,-0.034524 0.224406,-0.025893 0.388395,-0.051786 Q 40.258152,8.393821 40.094163,9.1188255 39.930174,9.84383 39.80934,10.61199 q -0.112203,0.759528 -0.181251,1.527688 -0.06042,0.768159 -0.06042,1.467271 0,0.888993 0.112203,1.527688 0.112203,0.630063 0.327978,1.03572 0.224406,0.397027 0.535123,0.586909 0.319347,0.189882 0.725004,0.189882 0.543753,0 1.070245,-0.388395 0.535122,-0.397027 0.923517,-1.147924 z"
           id="path1021" />
        <path
           d="m 51.901379,10.163177 q -0.07768,0.388396 -0.146727,0.906256 -0.06042,0.51786 -0.112203,1.122031 -0.04315,0.595539 -0.06905,1.251495 -0.02589,0.647326 -0.02589,1.294651 0,0.215776 0.0086,0.431551 0.0086,0.207144 0.0086,0.405657 0,0.422919 -0.05179,0.958042 -0.04316,0.535122 -0.189882,1.096137 -0.138096,0.552385 -0.388395,1.087507 -0.250299,0.535122 -0.664588,0.949411 -0.405657,0.414288 -0.992565,0.664587 -0.586909,0.25893 -1.389592,0.25893 -0.690481,0 -1.225603,-0.181251 -0.526492,-0.181251 -0.923518,-0.491967 -0.388395,-0.319347 -0.655956,-0.750898 -0.267561,-0.43155 -0.431551,-0.923517 -0.163989,-0.500599 -0.241668,-1.044352 -0.06905,-0.543753 -0.06905,-1.078876 0,-0.129465 0,-0.155358 0.0086,-0.03452 0.0086,-0.04316 0,-0.0086 0.0086,-0.02589 0.0086,-0.02589 0.0086,-0.138096 0,-0.112203 0,-0.353871 0.0086,-0.241668 0.0086,-0.68185 0,-0.51786 -0.01726,-1.165185 -0.01726,-0.655957 -0.07768,-1.277389 -0.05179,-0.630064 -0.155358,-1.139293 -0.103572,-0.509229 -0.267561,-0.742267 0.699111,0.120834 1.311913,0.16399 0.621432,0.04315 1.130662,0.04315 0.336609,0 0.60417,-0.0086 0.276192,-0.01726 0.474705,-0.03452 0.224406,-0.01726 0.405658,-0.04316 -0.172621,0.845839 -0.33661,1.924715 -0.155358,1.070245 -0.155358,2.459836 0,0.319348 0.02589,0.664588 0.03452,0.34524 0.112203,0.638694 0.07768,0.284824 0.207145,0.474706 0.138096,0.181251 0.34524,0.181251 0.25893,0 0.405657,-0.17262 0.146727,-0.17262 0.215775,-0.448813 0.07768,-0.284823 0.08631,-0.630063 0.01726,-0.34524 0.01726,-0.690481 -0.0086,-1.12203 -0.06905,-2.097334 -0.02589,-0.414288 -0.06905,-0.837208 -0.03452,-0.422919 -0.08631,-0.794052 -0.05179,-0.379764 -0.120834,-0.673219 -0.06905,-0.302085 -0.155358,-0.474705 0.699111,0.120834 1.294651,0.163989 0.595539,0.04316 1.061613,0.04316 0.310717,0 0.552385,-0.0086 0.250299,-0.01726 0.422919,-0.03452 0.207144,-0.01726 0.362502,-0.04316 z"
           id="path1018" />
        <path
           d="m 56.622541,20.080203 q -0.146727,-0.0086 -0.34524,-0.02589 -0.17262,-0.0086 -0.405657,-0.01726 -0.233038,-0.0086 -0.535123,-0.0086 -0.561015,0 -1.294651,0.05179 -0.733635,0.04315 -1.588105,0.17262 0.163989,-0.327978 0.276192,-0.819945 0.112203,-0.500599 0.181252,-1.061614 0.07768,-0.569647 0.112203,-1.147924 0.04315,-0.578277 0.06042,-1.061614 0.01726,-0.483336 0.01726,-0.819945 0.0086,-0.336609 0.0086,-0.42292 -0.01726,-1.12203 -0.07768,-2.097334 -0.02589,-0.414288 -0.06905,-0.837208 -0.03452,-0.422919 -0.08631,-0.794052 -0.05179,-0.379764 -0.120834,-0.673219 -0.06042,-0.302085 -0.146727,-0.474705 0.699112,0.120834 1.294651,0.163989 0.59554,0.04316 1.078876,0.04316 0.310716,0 0.552384,-0.0086 0.250299,-0.01726 0.42292,-0.03452 0.207144,-0.01726 0.362502,-0.04316 -0.155358,0.776791 -0.25893,1.872929 -0.09494,1.096137 -0.09494,2.347633 0,0.716374 0.03452,1.450009 0.03452,0.733636 0.112203,1.467271 0.07768,0.725005 0.198513,1.432747 0.129465,0.699112 0.310716,1.346437 z M 52.660909,7.7378646 q 0,-0.3970263 0.146727,-0.7422665 0.155359,-0.3538713 0.414289,-0.6128014 0.267561,-0.2675612 0.621432,-0.4142883 0.353871,-0.1553581 0.750898,-0.1553581 0.397026,0 0.742266,0.1553581 0.353871,0.1467271 0.612802,0.4142883 0.267561,0.2589301 0.414288,0.6128014 0.155358,0.3452402 0.155358,0.7422665 0,0.3970263 -0.155358,0.7508975 -0.146727,0.3538712 -0.414288,0.6214324 -0.258931,0.2589302 -0.612802,0.4142883 -0.34524,0.1467271 -0.742266,0.1467271 -0.397027,0 -0.750898,-0.1467271 Q 53.489486,9.3691247 53.221925,9.1101945 52.962995,8.8426333 52.807636,8.4887621 52.660909,8.1348909 52.660909,7.7378646 Z"
           id="path1015" />
        <path
           d="m 66.064859,10.197701 q -0.09494,0.362503 -0.163989,0.888994 -0.06042,0.51786 -0.112203,1.139293 -0.05179,0.612801 -0.08631,1.277389 -0.02589,0.664587 -0.05179,1.303281 -0.05179,1.501795 -0.06042,3.184842 0,0.880362 -0.112203,1.726201 -0.103572,0.837207 -0.34524,1.579474 -0.233037,0.742266 -0.612802,1.37233 -0.379764,0.630063 -0.923517,1.078875 -0.535123,0.448813 -1.242865,0.699112 -0.707743,0.25893 -1.605367,0.25893 -0.837208,0 -1.450009,-0.17262 -0.612802,-0.17262 -1.018459,-0.491967 -0.397026,-0.310717 -0.595539,-0.750898 -0.189882,-0.43155 -0.189882,-0.966672 0,-0.526492 0.181251,-0.949411 0.181251,-0.422919 0.474705,-0.725005 0.293454,-0.293454 0.655956,-0.448812 0.371134,-0.155358 0.750898,-0.155358 0.491967,0 0.923518,0.276192 0.43155,0.276192 0.655956,0.871732 -0.103572,-0.06905 -0.250299,-0.06905 -0.198513,0 -0.371133,0.155358 -0.172621,0.163989 -0.172621,0.388395 0,0.129465 0.04315,0.215775 0.05179,0.09494 0.129466,0.146727 0.07768,0.05179 0.163989,0.06905 0.09494,0.02589 0.17262,0.02589 0.09494,0 0.25893,-0.03452 0.17262,-0.02589 0.371133,-0.163989 0.198513,-0.138096 0.397026,-0.422919 0.198514,-0.284823 0.362503,-0.785422 0.163989,-0.500598 0.25893,-1.268757 0.103572,-0.76816 0.103572,-1.864298 -0.17262,0.76816 -0.43155,1.208341 -0.25893,0.440181 -0.552385,0.664588 -0.293454,0.215775 -0.60417,0.267561 -0.302085,0.05179 -0.569646,0.05179 -0.207145,0 -0.526492,-0.06905 -0.319347,-0.07768 -0.681849,-0.25893 -0.353872,-0.189883 -0.725005,-0.50923 -0.362502,-0.327978 -0.655956,-0.819945 -0.293454,-0.500599 -0.483337,-1.191079 -0.181251,-0.699112 -0.181251,-1.639891 0,-1.450009 0.293454,-2.451206 0.302086,-1.001197 0.76816,-1.613998 0.474705,-0.621432 1.044352,-0.888994 0.569646,-0.276192 1.113399,-0.276192 0.388396,0 0.707743,0.129465 0.319347,0.120834 0.578277,0.327978 0.258931,0.207145 0.457444,0.466075 0.198513,0.250299 0.353871,0.509229 -0.05179,-0.379764 -0.129465,-0.759528 -0.06905,-0.379765 -0.163989,-0.7681599 0.215775,0.094941 0.535122,0.1726199 0.276192,0.06905 0.690481,0.120834 0.414288,0.04316 1.001196,0.04316 0.690481,0 1.622629,-0.103572 z m -3.676808,4.332765 q 0,-0.241668 -0.03452,-0.578277 -0.03452,-0.34524 -0.129465,-0.655957 -0.09494,-0.319347 -0.267561,-0.543753 -0.16399,-0.224406 -0.431551,-0.224406 -0.198513,0 -0.362502,0.233037 -0.163989,0.224406 -0.284823,0.552384 -0.112203,0.319348 -0.181251,0.664588 -0.06042,0.34524 -0.06042,0.586908 0,0.414289 0.04316,0.845839 0.04315,0.43155 0.138096,0.785421 0.103572,0.345241 0.250299,0.569647 0.155358,0.224406 0.362502,0.224406 0.224406,0 0.397026,-0.103572 0.181252,-0.112203 0.302086,-0.293454 0.129465,-0.189883 0.189882,-0.431551 0.06905,-0.241668 0.06905,-0.51786 z"
           id="path1012" />
        <path
           d="m 70.837806,20.080203 q -0.146727,-0.0086 -0.34524,-0.02589 -0.17262,-0.0086 -0.405657,-0.01726 -0.233037,-0.0086 -0.535123,-0.0086 -0.561015,0 -1.29465,0.05179 -0.733636,0.04315 -1.588106,0.17262 0.16399,-0.327978 0.276193,-0.819945 0.112203,-0.500599 0.181251,-1.061614 0.07768,-0.569647 0.112203,-1.147924 0.04315,-0.578277 0.06042,-1.061614 0.01726,-0.483336 0.01726,-0.819945 0.0086,-0.336609 0.0086,-0.42292 -0.01726,-1.12203 -0.07768,-2.097334 -0.02589,-0.414288 -0.06905,-0.837208 -0.03452,-0.422919 -0.08631,-0.794052 -0.05179,-0.379764 -0.120834,-0.673219 -0.06042,-0.302085 -0.146727,-0.474705 0.699111,0.120834 1.29465,0.163989 0.59554,0.04316 1.078876,0.04316 0.310716,0 0.552385,-0.0086 0.250299,-0.01726 0.422919,-0.03452 0.207144,-0.01726 0.362502,-0.04316 -0.155358,0.776791 -0.25893,1.872929 -0.09494,1.096137 -0.09494,2.347633 0,0.716374 0.03452,1.450009 0.03452,0.733636 0.112203,1.467271 0.07768,0.725005 0.198513,1.432747 0.129465,0.699112 0.310716,1.346437 z M 66.876175,7.7378646 q 0,-0.3970263 0.146727,-0.7422665 0.155358,-0.3538713 0.414288,-0.6128014 0.267561,-0.2675612 0.621432,-0.4142883 0.353872,-0.1553581 0.750898,-0.1553581 0.397026,0 0.742266,0.1553581 0.353872,0.1467271 0.612802,0.4142883 0.267561,0.2589301 0.414288,0.6128014 0.155358,0.3452402 0.155358,0.7422665 0,0.3970263 -0.155358,0.7508975 -0.146727,0.3538712 -0.414288,0.6214324 -0.25893,0.2589302 -0.612802,0.4142883 -0.34524,0.1467271 -0.742266,0.1467271 -0.397026,0 -0.750898,-0.1467271 Q 67.704751,9.3691247 67.43719,9.1101945 67.17826,8.8426333 67.022902,8.4887621 66.876175,8.1348909 66.876175,7.7378646 Z"
           id="path1009" />
        <path
           d="m 71.424716,18.733766 q 0,-0.371133 0.138096,-0.699111 0.146727,-0.33661 0.388396,-0.586909 0.250299,-0.250299 0.578277,-0.388395 0.336609,-0.146727 0.716374,-0.146727 0.371133,0 0.699111,0.146727 0.336609,0.138096 0.586908,0.388395 0.2503,0.250299 0.388396,0.586909 0.146727,0.327978 0.146727,0.699111 0,0.379764 -0.146727,0.716374 -0.138096,0.327978 -0.388396,0.578277 -0.250299,0.241668 -0.586908,0.379764 -0.327978,0.146727 -0.699111,0.146727 -0.379765,0 -0.716374,-0.146727 -0.327978,-0.138096 -0.578277,-0.379764 -0.241669,-0.250299 -0.388396,-0.578277 -0.138096,-0.33661 -0.138096,-0.716374 z"
           id="path1006" />
        <path
           d="m 86.045638,13.995344 q 0,1.406854 -0.310717,2.416681 -0.310716,1.009828 -0.819945,1.717571 -0.509229,0.699111 -1.156555,1.130661 -0.647325,0.42292 -1.320544,0.664588 -0.664587,0.233037 -1.303282,0.310716 -0.638694,0.07768 -1.130661,0.07768 -0.837208,0 -1.432747,-0.06042 -0.586909,-0.05179 -0.975304,-0.05179 -0.440181,0 -0.975304,0.01726 -0.535122,0.01726 -1.130662,0.06905 0.233038,-0.422919 0.405658,-0.94078 0.181251,-0.526491 0.310716,-1.096137 0.129465,-0.569647 0.215775,-1.147924 0.09494,-0.586908 0.155358,-1.130662 0.138096,-1.277389 0.155358,-2.623826 -0.01726,-1.3378 -0.129465,-2.511616 Q 76.551531,10.335797 76.473852,9.835199 76.404804,9.3259697 76.301232,8.8771574 76.19766,8.419714 76.050933,8.0572118 75.912837,7.6947096 75.722955,7.4789344 q 0.638694,0.1035721 1.20834,0.1380961 0.578278,0.034524 1.018459,0.034524 0.284823,0 0.552385,-0.017262 0.267561,-0.017262 0.552384,-0.034524 0.284823,-0.017262 0.60417,-0.034524 0.327979,-0.017262 0.733636,-0.017262 0.586908,0 1.234234,0.08631 0.655956,0.077679 1.277389,0.3193472 0.630063,0.2416682 1.199709,0.6818495 0.569647,0.4401813 1.001197,1.1565548 0.43155,0.716373 0.68185,1.752094 0.25893,1.02709 0.25893,2.451206 z m -4.220562,-0.189882 q 0,-1.009828 -0.06042,-1.683046 -0.06042,-0.673219 -0.181251,-1.078876 -0.112203,-0.414288 -0.284824,-0.586909 -0.17262,-0.17262 -0.397026,-0.17262 -0.198513,0 -0.362502,0.207144 -0.155358,0.198514 -0.267561,0.647326 -0.112203,0.448812 -0.17262,1.156555 -0.06042,0.699111 -0.06042,1.700308 0,1.052983 0.05179,1.760725 0.06042,0.699112 0.163989,1.122031 0.112203,0.422919 0.267561,0.60417 0.163989,0.17262 0.379764,0.17262 0.422919,0 0.673219,-0.923517 0.250299,-0.923518 0.250299,-2.925911 z"
           id="path1003" />
        <path
           d="m 94.331403,12.087892 q 0,0.647325 -0.189882,1.260126 -0.181251,0.612802 -0.647326,1.087507 -0.466074,0.474705 -1.260127,0.759529 -0.785421,0.284823 -2.002393,0.284823 0.03452,0.422919 0.17262,0.707742 0.146727,0.284824 0.34524,0.457444 0.198514,0.17262 0.42292,0.25893 0.224406,0.08631 0.414288,0.120834 0.189882,0.03452 0.319347,0.03452 0.129465,0 0.129465,0 0.535123,-0.06042 0.958042,-0.276192 0.181251,-0.08631 0.353871,-0.215775 0.17262,-0.138096 0.310716,-0.319348 0.146727,-0.189882 0.233038,-0.422919 0.09494,-0.241668 0.112203,-0.552384 0.224406,0.561015 0.310716,1.052982 0.09494,0.483337 0.09494,0.906256 0,0.776791 -0.284823,1.432747 -0.276193,0.647325 -0.76816,1.122031 -0.491967,0.474705 -1.173817,0.733635 -0.673218,0.267561 -1.467271,0.267561 -0.77679,0 -1.501795,-0.267561 -0.716373,-0.267561 -1.277389,-0.845838 -0.552384,-0.586909 -0.888993,-1.519057 -0.327978,-0.932149 -0.327978,-2.261324 0,-1.441378 0.414288,-2.554778 0.414288,-1.113399 1.1134,-1.864297 0.699111,-0.759528 1.613998,-1.147924 0.923517,-0.3970259 1.933345,-0.3970259 0.500598,0 0.958042,0.1122029 0.466074,0.112203 0.811314,0.371133 0.353872,0.258931 0.561016,0.673219 0.207144,0.405657 0.207144,1.001197 z m -4.134252,1.967869 q 0.241668,-0.0086 0.561015,-0.09494 0.319348,-0.09494 0.604171,-0.25893 0.284823,-0.163989 0.474705,-0.405658 0.198513,-0.241668 0.198513,-0.552384 0,-0.198513 -0.138096,-0.319347 -0.138096,-0.120834 -0.353871,-0.120834 -0.302085,0 -0.543753,0.17262 -0.233038,0.17262 -0.405658,0.43155 -0.163989,0.25893 -0.267561,0.569646 -0.103572,0.310717 -0.129465,0.578277 z"
           id="path1000" />
        <path
           d="m 103.45438,10.111391 q -0.44018,1.242865 -0.72501,2.48573 -0.27619,1.242865 -0.4747,2.494361 -0.18988,1.251495 -0.32798,2.502991 -0.1381,1.251496 -0.29345,2.502992 -0.37977,-0.02589 -0.85447,-0.03452 -0.46608,-0.01726 -0.983939,-0.01726 -0.422919,0 -0.863101,0.0086 -0.43155,0.0086 -0.845838,0.03452 -0.414288,0.01726 -0.785422,0.04316 -0.362502,0.03452 -0.655956,0.06905 -0.163989,-1.268758 -0.319347,-2.520254 -0.155358,-1.260126 -0.379765,-2.502991 -0.224406,-1.251496 -0.552384,-2.48573 -0.327978,-1.242865 -0.845839,-2.477099 0.837208,0.103572 1.691678,0.103572 1.191078,0 2.373526,-0.207144 -0.04315,0.466075 -0.06042,0.923518 -0.01726,0.457443 -0.01726,0.914886 0,1.260127 0.138096,2.48573 0.146727,1.216972 0.466075,2.390789 0.267561,-1.122031 0.414288,-2.235431 0.155358,-1.1134 0.155358,-2.23543 0,-0.569647 -0.04315,-1.122031 -0.04316,-0.561015 -0.120834,-1.122031 0.958034,0.103572 1.924714,0.103572 0.9753,0 1.98513,-0.103572 z"
           id="path997" />
      </g>
    </g>
  </g>
</svg>
